<?xml version="1.0" encoding="UTF-8"?>
<svg id="Camada_2" data-name="Camada 2" xmlns="http://www.w3.org/2000/svg" viewBox="0 0 568.41 233.23">
  <defs>
    <style>
      .cls-1 {
        fill: #fff;
      }

      .cls-1, .cls-2 {
        stroke-width: 0px;
      }

      .cls-2 {
        fill: #1d1d1b;
      }
    </style>
  </defs>
  <g id="Camada_1-2" data-name="Camada 1">
    <g>
      <g>
        <path class="cls-2" d="m71.23,184.49c-2.3,0-4.44-.98-6.36-2.93l-.12-.13L5.93,108.58c-1.88-2.42-2.67-4.83-2.37-7.22.29-2.38,1.82-4.61,4.52-6.61L92.01,22.39c2.6-2.21,4.99-3.28,7.32-3.28,1.67,0,4.09.57,6.09,3.28l9.79,12.5.11.19c2.47,4.11,1.65,8.55-2.23,12.16l-.11.1-64.48,55.24,44.26,54.83c1.39,1.79,3.95,6.44-1.17,12.26l-.16.18-13.79,11.91c-2.05,1.81-4.22,2.74-6.42,2.74Z"/>
        <path class="cls-1" d="m99.33,22.61c1.28,0,2.38.63,3.31,1.89l9.69,12.37c1.62,2.69,1.08,5.29-1.62,7.8l-67.06,57.45,46.4,57.48c1.79,2.31,1.44,4.9-1.07,7.75l-13.61,11.75c-1.42,1.26-2.8,1.89-4.14,1.89s-2.62-.63-3.87-1.89L8.65,106.38c-1.26-1.62-1.8-3.14-1.62-4.58.18-1.43,1.25-2.87,3.23-4.31L94.29,25.04c1.91-1.62,3.58-2.43,5.03-2.43m0-7h0c-3.2,0-6.33,1.34-9.57,4.1L5.89,92.02c-3.44,2.58-5.39,5.58-5.81,8.93-.29,2.28,0,5.84,3.04,9.74l.04.05.04.05,58.71,72.72.22.28.25.25c3.24,3.28,6.6,3.96,8.84,3.96,3.07,0,6.01-1.21,8.74-3.61l13.58-11.73.36-.31.32-.36c4.75-5.39,5.25-11.62,1.35-16.66l-.04-.06-.04-.05-42.13-52.19,61.89-53.03.11-.09.11-.1c5.13-4.77,6.19-10.95,2.85-16.53l-.22-.37-.27-.34-9.63-12.3c-2.24-3-5.39-4.65-8.87-4.65h0Z"/>
      </g>
      <g>
        <path class="cls-2" d="m112.64,200.1c-3.46,0-5.89-1.06-7.23-3.15-1.37-2.14-1.29-4.92.24-8.27L189.68,10.69c1.99-4.64,5.81-7.19,10.78-7.19h19.51c4.31,0,6.36,1.88,7.32,3.46.96,1.58,1.67,4.28-.4,8.17l-83.89,177.72c-2.79,5.99-7.26,7.25-10.51,7.25h-19.85Z"/>
        <path class="cls-1" d="m219.97,7c2.16,0,3.61.59,4.33,1.78.72,1.19.54,2.78-.54,4.78l-83.93,177.8c-1.63,3.5-4.08,5.25-7.34,5.25h-19.85c-4.51,0-5.78-2.15-3.81-6.46L192.87,12.12c1.44-3.41,3.97-5.12,7.59-5.12h19.51m0-7h-19.51c-6.34,0-11.42,3.37-13.97,9.25l-83.98,177.91-.02.04-.02.04c-2.57,5.61-1.42,9.42,0,11.62,1.39,2.17,4.29,4.76,10.18,4.76h19.85c6.03,0,10.89-3.3,13.69-9.29L230.02,16.69c2.93-5.58,1.43-9.62.26-11.55-1.17-1.93-4.06-5.14-10.31-5.14h0Z"/>
      </g>
      <g>
        <path class="cls-2" d="m276.63,200.1c-5.9,0-9.42-3.52-9.42-9.42l-.49-32.86h-34.02l-12.23,34.26-.08.17c-1.37,2.82-2.62,4.67-3.96,5.81-1.6,1.37-3.81,2.04-6.75,2.04h-23.23c-3.36,0-5.84-1.03-7.35-3.06-1.58-2.13-1.84-5.03-.76-8.64l.04-.13L246.06,11.64l.05-.1c2.42-5.26,6.76-8.04,12.57-8.04h32.3c7.01,0,11.2,3.7,11.23,9.91l5.38,176.28c.24,3.21-.51,5.77-2.21,7.62-1.72,1.86-4.23,2.8-7.48,2.8h-21.28Zm-9.94-78.91l.39-61.08-21.34,61.08h20.95Z"/>
        <path class="cls-1" d="m290.98,7c5.15,0,7.73,2.15,7.73,6.46l5.39,176.41c.36,4.49-1.71,6.73-6.19,6.73h-21.28c-3.95,0-5.92-1.97-5.92-5.92l-.54-36.36h-39.93l-13,36.41c-1.12,2.31-2.15,3.88-3.08,4.68-.93.8-2.42,1.2-4.48,1.2h-23.23c-4.61,0-6.19-2.4-4.76-7.2L249.29,13c1.84-4,4.97-6,9.39-6h32.3m-20.28,33.67h-.54l-29.36,84.03h29.36l.54-84.03M290.98,0h-32.3c-7.17,0-12.76,3.58-15.75,10.08l-.1.21-.08.21-67.61,176.4-.09.25-.08.25c-1.41,4.72-.97,8.67,1.31,11.73,1.52,2.04,4.51,4.47,10.16,4.47h23.23c3.77,0,6.81-.97,9.04-2.9,1.7-1.45,3.23-3.66,4.82-6.94l.16-.34.13-.35,11.34-31.76h28.1l.44,29.42c.03,7.82,5.09,12.86,12.92,12.86h21.28c5.31,0,8.4-2.14,10.05-3.93,1.64-1.77,3.5-4.97,3.14-10.17l-5.38-176.16c-.06-8.11-5.83-13.34-14.73-13.34h0Zm-40.31,117.69l12.78-36.57-.23,36.57h-12.54Z"/>
      </g>
      <g>
        <path class="cls-2" d="m319.21,229.73c-2.94,0-5.19-.88-6.7-2.61-1.51-1.74-2.06-4.11-1.64-7.04l29.07-164.89c.81-5.46,4.52-8.59,10.2-8.59h18.08c2.81,0,4.94.6,6.49,1.84,1.09.87,2.3,2.44,2.43,5.17,6.74-6.09,15.23-9.16,25.38-9.16,17.39,0,38.11,8.13,38.11,46.86,0,8.57-1.01,19.53-2.99,32.58-4.73,27.03-11.46,46.9-20.03,59.12-8.97,12.79-21.25,19.27-36.51,19.27-7.54,0-14.38-1.68-20.33-4.98-2.58-1.43-4.76-3.03-6.54-4.79l-5.29,28.69c-.81,5.43-4.44,8.55-9.96,8.55h-19.79Zm72.51-151.36c-11.72,0-20.37,15.31-25.71,45.5-1.75,10.86-2.64,19.11-2.64,24.48,0,19.7,8.35,19.7,11.5,19.7,5.65,0,10.08-2.95,13.54-9.01,3.88-6.8,7.44-19.02,10.56-36.32,1.91-11.56,2.89-20.7,2.89-27.12,0-8.42-1.47-12.26-2.7-14-.99-1.39-2.83-3.24-7.44-3.24Z"/>
        <path class="cls-1" d="m402.53,47.94c23.07,0,34.61,14.46,34.61,43.36,0,8.44-.98,19.12-2.95,32.05-4.65,26.58-11.13,45.79-19.43,57.64-8.31,11.85-19.53,17.78-33.64,17.78-6.97,0-13.18-1.51-18.63-4.54-5.45-3.03-8.8-6.77-10.05-11.22l-6.93,37.61c-.54,3.75-2.71,5.62-6.51,5.62h-19.79c-3.79,0-5.42-1.89-4.88-5.66l29.06-164.83c.54-3.77,2.79-5.65,6.75-5.65h18.08c1.98,0,3.41.36,4.31,1.08.9.72,1.26,1.98,1.08,3.77l-1.14,9.91c6.8-11.28,16.81-16.92,30.05-16.92m-27.66,123.62c6.95,0,12.48-3.59,16.58-10.77,4.1-7.18,7.76-19.66,10.97-37.44,1.96-11.85,2.94-21.1,2.94-27.74,0-7.54-1.12-12.88-3.35-16.02-2.23-3.14-5.66-4.71-10.3-4.71-13.73,0-23.45,16.13-29.15,48.39-1.8,11.15-2.69,19.52-2.69,25.09,0,15.47,5,23.2,15,23.2m27.66-130.62c-9.16,0-17.08,2.29-23.7,6.84-.64-.94-1.35-1.62-1.92-2.08-2.21-1.76-5.05-2.61-8.68-2.61h-18.08c-7.36,0-12.58,4.42-13.66,11.53l-29.04,164.73-.02.11-.02.11c-.71,4.96.95,8.08,2.46,9.83,1.51,1.74,4.36,3.82,9.34,3.82h19.79c7.2,0,12.32-4.39,13.41-11.47l4.22-22.91c.78.51,1.6,1.01,2.46,1.48,6.48,3.6,13.89,5.42,22.03,5.42,16.47,0,29.72-6.98,39.38-20.76,8.99-12.83,15.73-32.6,20.6-60.45v-.08s.03-.08.03-.08c2.01-13.22,3.03-24.36,3.03-33.1,0-16.01-3.43-28.42-10.18-36.89-7.14-8.94-17.71-13.47-31.43-13.47h0Zm-33.06,83.49c4.86-27.44,12.76-42.56,22.25-42.56,3.33,0,4.18,1.19,4.59,1.77.62.87,2.05,3.78,2.05,11.97,0,6.22-.96,15.15-2.84,26.55-3.05,16.88-6.47,28.71-10.15,35.16-3.67,6.42-7.54,7.24-10.51,7.24-2.39,0-8,0-8-16.2,0-5.18.87-13.23,2.6-23.92h0Z"/>
      </g>
      <g>
        <path class="cls-2" d="m468.74,184.9c-1.69,0-4.18-.6-6.51-3.44l-.09-.1-8.81-12.66-.05-.08c-2.7-4.34-1.92-8.87,2.07-12.13l64.02-55.39-44.24-54.66c-1.3-1.47-4.56-6.31,1.89-12.39l12.91-12.36.24-.16c2.33-1.58,4.48-2.35,6.57-2.35,2.38,0,4.52,1.03,6.18,2.98l59.48,72.94c1.63,1.74,2.49,4.07,2.49,6.74v.21l-.03.21c-.3,2.4-1.75,4.67-4.44,6.94l-85.03,72.66c-2.18,2.02-4.43,3.04-6.67,3.04Z"/>
        <path class="cls-1" d="m496.75,22.67c1.35,0,2.53.58,3.52,1.75l59.52,72.99c1.08,1.11,1.62,2.58,1.62,4.42-.18,1.47-1.25,3.04-3.22,4.7l-85.11,72.72c-1.54,1.44-2.99,2.16-4.35,2.16s-2.62-.72-3.8-2.16l-8.68-12.48c-1.8-2.89-1.35-5.42,1.35-7.6l66.63-57.64-46.43-57.36c-1.98-2.16-1.43-4.69,1.62-7.58l12.72-12.17c1.71-1.17,3.25-1.75,4.6-1.75m0-7c-2.78,0-5.65,1-8.54,2.96l-.48.33-.42.4-12.72,12.17c-6.94,6.54-5.51,13.29-2.12,17.16l42.06,51.96-61.43,53.14c-5.37,4.4-6.45,10.77-2.79,16.65l.1.15.1.15,8.68,12.48.15.22.17.21c3.19,3.91,6.77,4.73,9.22,4.73,3.14,0,6.16-1.32,9-3.92l85-72.63c3.31-2.8,5.22-5.89,5.62-9.16l.05-.43v-.43c0-4.39-1.76-7.3-3.34-9.03l-59.37-72.8-.05-.06-.05-.06c-2.31-2.71-5.45-4.21-8.85-4.21h0Z"/>
      </g>
    </g>
  </g>
</svg>