<svg width="241" height="93" viewBox="0 0 241 93" fill="none" xmlns="http://www.w3.org/2000/svg">
<path d="M0.512001 40.464L-0.481943 40.3536L-0.483037 40.3645L0.512001 40.464ZM1.968 38.336L2.60824 39.1043L2.61859 39.0954L1.968 38.336ZM37.136 8.208L37.7866 8.96742L37.7969 8.95861L37.8069 8.94953L37.136 8.208ZM41.168 8.096L41.9489 7.4713L41.9426 7.46349L41.9362 7.45581L41.168 8.096ZM46.096 14.256L46.9281 13.7013L46.904 13.6652L46.8769 13.6313L46.096 14.256ZM45.424 18.176L46.0743 18.9357L46.0928 18.9198L46.1106 18.903L45.424 18.176ZM18.992 40.8L18.3417 40.0403L17.6001 40.6751L18.2168 41.4318L18.992 40.8ZM37.248 63.2L38.0587 62.6145L38.0416 62.5909L38.0232 62.5682L37.248 63.2ZM36.576 67.008L35.9319 66.2431L35.9273 66.247L36.576 67.008ZM29.744 72.832L29.0953 72.071L29.0932 72.0727L29.744 72.832ZM25.712 72.832L24.935 73.4617L24.9438 73.4722L25.712 72.832ZM1.296 42.704L0.515116 43.3287L0.519092 43.3336L1.296 42.704ZM1.50588 40.5744C1.53737 40.2911 1.77743 39.7965 2.60818 39.1042L1.32782 37.5678C0.36657 38.3688 -0.364032 39.2929 -0.481883 40.3536L1.50588 40.5744ZM2.61859 39.0954L37.7866 8.96742L36.4854 7.44857L1.31741 37.5766L2.61859 39.0954ZM37.8069 8.94953C38.5101 8.3133 39.0176 8.12478 39.3478 8.11561C39.6256 8.10789 39.9719 8.22273 40.3998 8.73618L41.9362 7.45581C41.2441 6.62526 40.3584 6.08677 39.2922 6.11638C38.2784 6.14454 37.3299 6.68403 36.4651 7.46646L37.8069 8.94953ZM40.3871 8.72069L45.3151 14.8807L46.8769 13.6313L41.9489 7.4713L40.3871 8.72069ZM45.264 14.8107C45.6029 15.319 45.6742 15.7264 45.6144 16.075C45.5509 16.4451 45.3126 16.9057 44.7374 17.449L46.1106 18.903C46.8794 18.177 47.4251 17.3496 47.5856 16.413C47.7499 15.455 47.4852 14.5369 46.9281 13.7013L45.264 14.8107ZM44.7737 17.4163L18.3417 40.0403L19.6423 41.5597L46.0743 18.9357L44.7737 17.4163ZM18.2168 41.4318L36.4728 63.8318L38.0232 62.5682L19.7672 40.1682L18.2168 41.4318ZM36.4373 63.7855C36.812 64.3043 36.8758 64.6884 36.8232 64.9862C36.7666 65.3072 36.5389 65.7319 35.9319 66.2431L37.2201 67.7729C38.0317 67.0895 38.6254 66.2822 38.7928 65.3338C38.9642 64.3622 38.6547 63.4397 38.0587 62.6145L36.4373 63.7855ZM35.9273 66.247L29.0953 72.071L30.3927 73.593L37.2247 67.769L35.9273 66.247ZM29.0932 72.0727C28.3974 72.6692 27.8941 72.84 27.56 72.84C27.2691 72.84 26.9118 72.7097 26.4802 72.1918L24.9438 73.4722C25.6322 74.2983 26.5069 74.84 27.56 74.84C28.5699 74.84 29.5227 74.3388 30.3948 73.5913L29.0932 72.0727ZM26.4889 72.2024L2.07291 42.0744L0.519092 43.3336L24.9351 73.4616L26.4889 72.2024ZM2.07687 42.0793C1.59599 41.4782 1.465 40.9839 1.50704 40.5635L-0.483037 40.3645C-0.590329 41.4374 -0.198658 42.4365 0.515131 43.3287L2.07687 42.0793ZM44.3171 76.752L45.2178 77.1868L45.2232 77.1752L44.3171 76.752ZM78.4771 3.616L79.3832 4.0392L79.3862 4.03265L78.4771 3.616ZM94.3811 1.824L93.5331 2.354L93.5331 2.354L94.3811 1.824ZM94.1571 4.17599L93.2767 3.7019L93.2634 3.72643L93.2516 3.75167L94.1571 4.17599ZM59.8851 77.312L58.9796 76.8877L58.9761 76.8953L59.8851 77.312ZM45.2232 77.1752L79.3832 4.03918L77.5711 3.19281L43.4111 76.3288L45.2232 77.1752ZM79.3862 4.03265C79.7428 3.25467 80.1652 2.7393 80.6218 2.41697C81.0701 2.10054 81.6102 1.928 82.2851 1.928V-0.0720024C81.2427 -0.0720024 80.2895 0.203449 79.4684 0.783028C78.6557 1.3567 78.0328 2.18533 77.5681 3.19934L79.3862 4.03265ZM82.2851 1.928H92.2531V-0.0720024H82.2851V1.928ZM92.2531 1.928C93.1332 1.928 93.4209 2.17436 93.5331 2.354L95.2291 1.294C94.5947 0.278969 93.4637 -0.0720024 92.2531 -0.0720024V1.928ZM93.5331 2.354C93.6237 2.49897 93.732 2.85622 93.2767 3.7019L95.0376 4.65009C95.6276 3.55443 95.8852 2.34369 95.2291 1.294L93.5331 2.354ZM93.2516 3.75167L58.9796 76.8877L60.7906 77.7363L95.0626 4.60032L93.2516 3.75167ZM58.9761 76.8953C58.6164 77.68 58.1991 78.1977 57.757 78.5193C57.3255 78.833 56.8166 79 56.1891 79V81C57.2043 81 58.1327 80.719 58.9333 80.1367C59.7231 79.5623 60.3325 78.736 60.7942 77.7287L58.9761 76.8953ZM56.1891 79H46.2211V81H56.1891V79ZM46.2211 79C45.1231 79 44.8986 78.7279 44.8718 78.6823C44.8297 78.6103 44.7145 78.2291 45.2177 77.1868L43.4166 76.3173C42.8745 77.4402 42.5539 78.683 43.1464 79.6937C43.7543 80.7308 45.0045 81 46.2211 81V79ZM103.796 49.536L102.848 49.2168L102.404 50.536H103.796V49.536ZM114.436 49.536V50.536H115.419L115.436 49.5535L114.436 49.536ZM114.996 17.616L115.996 17.6335L116.014 16.616H114.996V17.616ZM114.548 17.616V16.616H113.83L113.6 17.2968L114.548 17.616ZM129.444 4.17599H128.444L128.444 4.18988L129.444 4.17599ZM130.452 76.752L129.452 76.7659L129.453 76.7934L129.454 76.8208L130.452 76.752ZM113.652 77.088L114.649 77.1647L114.652 77.1264V77.088H113.652ZM113.652 64.32H114.652V63.32H113.652V64.32ZM99.4281 64.32V63.32H98.7192L98.4845 63.9889L99.4281 64.32ZM94.9481 77.088L95.8673 77.4819L95.8806 77.4509L95.8917 77.4191L94.9481 77.088ZM93.4921 79.328L92.8413 78.5687L92.8122 78.5937L92.785 78.6209L93.4921 79.328ZM77.8121 79.104L78.6601 78.574L78.6376 78.538L78.6121 78.504L77.8121 79.104ZM77.7001 76.752L78.6335 77.111L78.6367 77.1026L78.6397 77.0942L77.7001 76.752ZM104.132 4.17599L103.197 3.82131L103.193 3.83379L104.132 4.17599ZM103.796 50.536H114.436V48.536H103.796V50.536ZM115.436 49.5535L115.996 17.6335L113.996 17.5985L113.436 49.5185L115.436 49.5535ZM114.996 16.616H114.548V18.616H114.996V16.616ZM113.6 17.2968L102.848 49.2168L104.744 49.8552L115.496 17.9352L113.6 17.2968ZM108.836 1.928H125.636V-0.0720024H108.836V1.928ZM125.636 1.928C126.787 1.928 127.463 2.17673 127.843 2.50083C128.193 2.79896 128.444 3.29275 128.444 4.17599H130.444C130.444 2.89391 130.061 1.7637 129.141 0.97916C128.252 0.220596 127.024 -0.0720024 125.636 -0.0720024V1.928ZM128.444 4.18988L129.452 76.7659L131.452 76.7381L130.444 4.16211L128.444 4.18988ZM129.454 76.8208C129.52 77.766 129.324 78.2612 129.092 78.5205C128.867 78.7711 128.428 79 127.54 79V81C128.742 81 129.835 80.6876 130.581 79.8555C131.319 79.0322 131.534 77.9033 131.45 76.6832L129.454 76.8208ZM127.54 79H116.564V81H127.54V79ZM116.564 79C115.648 79 115.195 78.7844 114.975 78.5649C114.772 78.3612 114.587 77.9704 114.649 77.1647L112.655 77.0113C112.568 78.1469 112.794 79.2121 113.561 79.9791C114.312 80.7302 115.39 81 116.564 81V79ZM114.652 77.088V64.32H112.652V77.088H114.652ZM113.652 63.32H99.4281V65.32H113.652V63.32ZM98.4845 63.9889L94.0045 76.7569L95.8917 77.4191L100.372 64.6511L98.4845 63.9889ZM94.029 76.6941C93.6067 77.6794 93.1957 78.265 92.8413 78.5687L94.1429 80.0873C94.8339 79.495 95.3936 78.5873 95.8673 77.4819L94.029 76.6941ZM92.785 78.6209C92.6038 78.8021 92.2078 79 91.3641 79V81C92.4617 81 93.4845 80.7499 94.1992 80.0351L92.785 78.6209ZM91.3641 79H79.9401V81H91.3641V79ZM79.9401 79C79.06 79 78.7724 78.7536 78.6601 78.574L76.9641 79.634C77.5985 80.649 78.7296 81 79.9401 81V79ZM78.6121 78.504C78.4466 78.2833 78.3302 77.8995 78.6335 77.111L76.7668 76.393C76.3234 77.5458 76.2816 78.73 77.0121 79.704L78.6121 78.504ZM78.6397 77.0942L105.072 4.5182L103.193 3.83379L76.7605 76.4098L78.6397 77.0942ZM105.067 4.53065C105.422 3.59621 105.908 2.96611 106.492 2.56289C107.076 2.1597 107.838 1.928 108.836 1.928V-0.0720024C107.52 -0.0720024 106.34 0.237625 105.356 0.917099C104.372 1.59655 103.664 2.59045 103.197 3.82134L105.067 4.53065ZM156.65 49.2L155.664 49.032L155.662 49.0408L156.65 49.2ZM166.506 63.312L165.637 62.8159L165.632 62.8253L165.627 62.8349L166.506 63.312ZM170.538 49.2L171.523 49.3732L171.523 49.3694L170.538 49.2ZM170.65 32.848L169.818 33.4027L169.827 33.4161L169.836 33.4292L170.65 32.848ZM160.794 35.312L159.944 34.784L159.94 34.7906L160.794 35.312ZM161.13 20.64L162.127 20.7112L162.13 20.6757V20.64H161.13ZM160.906 23.776L159.908 23.7048L159.645 27.3894L161.731 24.3407L160.906 23.776ZM186.554 49.2L187.538 49.3749L187.54 49.3667L186.554 49.2ZM178.266 73.616L177.451 73.0359L177.449 73.0383L178.266 73.616ZM156.426 79.328L155.99 80.2282L156.002 80.2339L156.014 80.2394L156.426 79.328ZM152.058 75.408L152.986 75.0366L151.678 71.7669L151.073 75.236L152.058 75.408ZM149.594 89.52L148.609 89.348L148.604 89.3743L148.601 89.4009L149.594 89.52ZM133.914 89.52L132.929 89.3459L132.924 89.3733L132.921 89.4009L133.914 89.52ZM146.01 21.088L146.994 21.2621L146.996 21.254L146.997 21.246L146.01 21.088ZM155.662 49.0408C154.915 53.6722 154.53 57.0645 154.53 59.168H156.53C156.53 57.2395 156.891 53.9865 157.637 49.3592L155.662 49.0408ZM154.53 59.168C154.53 61.9329 154.975 64.1799 156.008 65.7626C157.09 67.4194 158.739 68.232 160.794 68.232V66.232C159.339 66.232 158.356 65.7006 157.683 64.6694C156.962 63.5641 156.53 61.7791 156.53 59.168H154.53ZM160.794 68.232C163.645 68.232 165.841 66.6317 167.384 63.7891L165.627 62.8349C164.333 65.219 162.721 66.232 160.794 66.232V68.232ZM167.374 63.8081C168.961 61.0302 170.327 56.1726 171.523 49.3732L169.553 49.0268C168.359 55.8167 167.037 60.3671 165.637 62.8159L167.374 63.8081ZM171.523 49.3694C172.347 44.5754 172.77 40.8495 172.77 38.224H170.77C170.77 40.6758 170.371 44.2672 169.552 49.0306L171.523 49.3694ZM172.77 38.224C172.77 35.6472 172.402 33.5813 171.463 32.2668L169.836 33.4292C170.39 34.2053 170.77 35.7234 170.77 38.224H172.77ZM171.482 32.2933C170.507 30.8317 168.958 30.168 167.066 30.168V32.168C168.458 32.168 169.299 32.6243 169.818 33.4027L171.482 32.2933ZM167.066 30.168C164.147 30.168 161.778 31.8337 159.944 34.7841L161.643 35.8399C163.244 33.2649 165.056 32.168 167.066 32.168V30.168ZM159.94 34.7906C158.192 37.6522 156.787 42.4445 155.664 49.032L157.635 49.368C158.753 42.8142 160.11 38.3478 161.647 35.8335L159.94 34.7906ZM160.132 20.5687L159.908 23.7048L161.903 23.8472L162.127 20.7112L160.132 20.5687ZM161.731 24.3407C164.454 20.3615 168.212 18.392 173.114 18.392V16.392C167.562 16.392 163.182 18.6785 160.08 23.2113L161.731 24.3407ZM173.114 18.392C177.825 18.392 181.198 19.8362 183.424 22.5853C185.683 25.3748 186.898 29.6717 186.898 35.648H188.898C188.898 29.4537 187.648 24.6225 184.979 21.3267C182.277 17.9905 178.258 16.392 173.114 16.392V18.392ZM186.898 35.648C186.898 39.3071 186.458 43.7653 185.568 49.0333L187.54 49.3667C188.441 44.032 188.898 39.4556 188.898 35.648H186.898ZM185.569 49.0251C183.56 60.3373 180.828 68.2945 177.451 73.0359L179.08 74.1961C182.722 69.0815 185.516 60.7614 187.538 49.3749L185.569 49.0251ZM177.449 73.0383C174.203 77.6253 169.804 79.896 164.154 79.896V81.896C170.45 81.896 175.459 79.3133 179.082 74.1937L177.449 73.0383ZM164.154 79.896C161.442 79.896 159.008 79.397 156.837 78.4166L156.014 80.2394C158.472 81.3496 161.191 81.896 164.154 81.896V79.896ZM156.861 78.4278C154.643 77.3547 153.449 76.1939 152.986 75.0366L151.129 75.7794C151.861 77.6088 153.579 79.0613 155.99 80.2282L156.861 78.4278ZM151.073 75.236L148.609 89.348L150.579 89.692L153.043 75.58L151.073 75.236ZM148.601 89.4009C148.507 90.1854 148.265 90.6316 147.99 90.8862C147.722 91.1348 147.293 91.32 146.57 91.32V93.32C147.639 93.32 148.609 93.0386 149.349 92.3538C150.082 91.6751 150.457 90.7213 150.587 89.6391L148.601 89.4009ZM146.57 91.32H136.378V93.32H146.57V91.32ZM136.378 91.32C135.586 91.32 135.255 91.1211 135.112 90.9594C134.968 90.7958 134.811 90.435 134.906 89.6391L132.921 89.4009C132.792 90.4716 132.934 91.5109 133.611 92.2806C134.29 93.0523 135.302 93.32 136.378 93.32V91.32ZM134.898 89.6941L146.994 21.2621L145.025 20.9139L132.929 89.3459L134.898 89.6941ZM146.997 21.246C147.123 20.4606 147.384 20.0014 147.684 19.7339C147.976 19.4725 148.425 19.288 149.146 19.288V17.288C148.075 17.288 147.104 17.5702 146.352 18.2421C145.606 18.9079 145.195 19.8487 145.022 20.93L146.997 21.246ZM149.146 19.288H158.33V17.288H149.146V19.288ZM158.33 19.288C159.147 19.288 159.574 19.4633 159.786 19.6417C159.965 19.792 160.13 20.0603 160.13 20.64H162.13C162.13 19.6517 161.827 18.744 161.073 18.1103C160.352 17.5047 159.379 17.288 158.33 17.288V19.288ZM240.4 40.464L239.416 40.2851L239.409 40.3246L239.405 40.3645L240.4 40.464ZM238.944 42.704L238.304 41.9357L238.296 41.9425L238.944 42.704ZM203.552 72.832L202.904 72.0705L202.874 72.0965L202.845 72.1249L203.552 72.832ZM199.632 72.832L198.836 73.4367L198.851 73.4568L198.867 73.4761L199.632 72.832ZM195.04 66.784L194.235 67.3772L194.239 67.383L194.244 67.3887L195.04 66.784ZM195.6 62.976L196.22 63.7609L196.235 63.7486L196.251 63.7357L195.6 62.976ZM222.032 40.352L222.683 41.1117L223.426 40.475L222.806 39.7179L222.032 40.352ZM203.664 17.952L204.438 17.3179L204.436 17.3163L203.664 17.952ZM204.448 14.032L205.099 14.7913L205.108 14.7837L205.117 14.7759L204.448 14.032ZM211.056 8.096L210.462 7.29182L210.423 7.32019L210.388 7.35208L211.056 8.096ZM214.976 8.096L214.159 8.67268L214.18 8.70181L214.202 8.72939L214.976 8.096ZM239.728 38.336L238.954 38.9694L238.986 39.0079L239.021 39.0431L239.728 38.336ZM239.405 40.3645C239.368 40.7374 239.107 41.2666 238.304 41.9358L239.584 43.4722C240.573 42.6481 241.283 41.6839 241.395 40.5635L239.405 40.3645ZM238.296 41.9425L202.904 72.0705L204.2 73.5935L239.592 43.4655L238.296 41.9425ZM202.845 72.1249C202.225 72.745 201.784 72.896 201.508 72.896C201.258 72.896 200.887 72.7698 200.397 72.1879L198.867 73.4761C199.572 74.3129 200.452 74.896 201.508 74.896C202.539 74.896 203.461 74.3377 204.259 73.5391L202.845 72.1249ZM200.429 72.2273L195.837 66.1793L194.244 67.3887L198.836 73.4367L200.429 72.2273ZM195.845 66.1908C195.419 65.6128 195.343 65.2023 195.386 64.9135C195.429 64.6187 195.629 64.2276 196.22 63.7609L194.981 62.1911C194.153 62.8444 193.55 63.6479 193.407 64.6225C193.263 65.603 193.616 66.5365 194.235 67.3772L195.845 66.1908ZM196.251 63.7357L222.683 41.1117L221.382 39.5923L194.95 62.2163L196.251 63.7357ZM222.806 39.7179L204.438 17.3179L202.891 18.5861L221.259 40.9861L222.806 39.7179ZM204.436 17.3163C204.055 16.854 203.999 16.5068 204.057 16.2161C204.125 15.8737 204.397 15.3932 205.099 14.7913L203.797 13.2727C202.932 14.0148 202.289 14.8596 202.096 15.8239C201.892 16.8399 202.228 17.7807 202.892 18.5877L204.436 17.3163ZM205.117 14.7759L211.725 8.83992L210.388 7.35208L203.78 13.2881L205.117 14.7759ZM211.651 8.90017C212.437 8.31878 212.983 8.144 213.324 8.144C213.588 8.144 213.858 8.24625 214.159 8.67268L215.793 7.51931C215.198 6.67641 214.367 6.144 213.324 6.144C212.359 6.144 211.393 6.60389 210.462 7.29182L211.651 8.90017ZM214.202 8.72939L238.954 38.9694L240.502 37.7026L215.75 7.4626L214.202 8.72939ZM239.021 39.0431C239.39 39.4117 239.506 39.7912 239.416 40.2851L241.384 40.6429C241.593 39.4941 241.261 38.4549 240.435 37.6289L239.021 39.0431Z" fill="white"/>
</svg>
