<svg width="204" height="21" viewBox="0 0 204 21" fill="none" xmlns="http://www.w3.org/2000/svg">
<path d="M16.7234 2.93977H2.65137V14.9981H16.7234V2.93977Z" fill="white"/>
<path d="M17.2762 1.00298L17.3528 1.00746L17.4263 1.01492L17.4969 1.02387L17.5675 1.03432L17.635 1.04775L17.6996 1.06267L17.7626 1.07908L17.8242 1.09848L17.8827 1.11937L17.9398 1.14324L17.9938 1.16712L18.0464 1.19547L18.0959 1.22382L18.1439 1.25515L18.1905 1.28948L18.234 1.32379L18.276 1.3611L18.3151 1.40139L18.3526 1.44317L18.3871 1.48644L18.4202 1.53269L18.4517 1.57895L18.4802 1.62968L18.5072 1.68042L18.5312 1.73563L18.5538 1.79084L18.5733 1.84903L18.5913 1.90871L18.6078 1.96989L18.6213 2.03405L18.6333 2.1012L18.6423 2.16835L18.6498 2.23848L18.6543 2.31159L18.6573 2.38471L18.6588 2.4623L18.6573 2.53989L18.6543 2.62643L18.6513 2.7279L18.6498 2.84429L18.6483 2.9756L18.6453 3.12033L18.6438 3.28149L18.6423 3.45607L18.6408 3.64706L18.6393 3.85148L18.6378 4.07083V4.3036L18.6363 4.55279L18.6348 4.8169V5.09444L18.6333 5.3869V5.69577V6.01807L18.6318 6.3553V6.70744V7.07302V7.45501V7.85042L18.6333 8.26076V8.68752V9.1277L18.6348 9.5828V10.0513L18.6363 10.5363L18.6378 11.0347V11.5494L18.6393 12.0777L18.6408 12.6208L18.6423 13.1789L18.6438 13.7518L18.6453 14.3398L18.6483 14.9426L18.6498 15.5588L18.6513 16.19L18.6543 16.8376L18.6573 17.4986V17.5374L18.6558 17.5777L18.6543 17.615L18.6513 17.6538L18.6468 17.6911L18.6408 17.7269L18.6348 17.7627L18.6258 17.797L18.6183 17.8314L18.6078 17.8642L18.5958 17.897L18.5838 17.9284L18.5703 17.9597L18.5553 17.991L18.5387 18.0209L18.5222 18.0492L18.5042 18.0776L18.4847 18.1044L18.4637 18.1313L18.4427 18.1581L18.4202 18.1835L18.3961 18.2074L18.3706 18.2313L18.3436 18.2536L18.3166 18.276L18.288 18.2984L18.258 18.3193L18.2265 18.3387L18.195 18.3581L18.1619 18.3775L18.1274 18.3954L18.0914 18.4118L18.0554 18.4282L18.0163 18.4446L17.9773 18.4596L17.9368 18.4745L17.8962 18.4879L17.8527 18.4998L17.8092 18.5118L17.7641 18.5237L17.7146 18.5357L17.6575 18.5506L17.59 18.5655L17.5149 18.5849L17.4308 18.6043L17.3378 18.6267L17.2372 18.6506L17.1276 18.6774L17.0105 18.7058L16.8829 18.7356L16.7478 18.7684L16.6052 18.8027L16.4521 18.8401L16.2914 18.8788L16.1218 18.9191L15.9446 18.9609L15.7585 19.0057L15.5633 19.0534L15.3607 19.1012L15.1475 19.1534L14.9283 19.2056L14.6986 19.2608L14.4614 19.3175L14.2152 19.3772L13.96 19.4384L13.6973 19.5011L13.4256 19.5667L13.1449 19.6339L12.8566 19.7025L12.5594 19.7741L12.2531 19.8472L11.9394 19.9233L11.6166 19.9994L11.2849 20.08L10.9441 20.1606L10.5958 20.2442L10.2385 20.3307L9.87371 20.4187L9.4984 20.5083L9.11559 20.5993L9.06305 20.6082L9.01051 20.6172L8.95947 20.6232L8.91143 20.6276L8.86339 20.6321L8.81685 20.6336L8.77031 20.6351H8.72678L8.68474 20.6336L8.64271 20.6306L8.60368 20.6261L8.56465 20.6202L8.52712 20.6127L8.49259 20.6053L8.45806 20.5948L8.42503 20.5844L8.39201 20.5709L8.36198 20.5575L8.33346 20.5426L8.30493 20.5262L8.27941 20.5083L8.25389 20.4889L8.22987 20.4695L8.20886 20.4471L8.18784 20.4247L8.16832 20.3993L8.14881 20.374L8.13229 20.3471L8.11728 20.3188L8.10227 20.2889L8.09026 20.2576L8.07825 20.2248L8.06774 20.1904L8.06024 20.1561L8.05273 20.1188L8.04673 20.0815L8.04072 20.0412L8.03772 20.0009L8.03622 19.9592L8.03472 19.9159V19.3056L8.04072 19.2623L8.04522 19.2191L8.04973 19.1788L8.05273 19.1385L8.05573 19.0982L8.05723 19.0609V19.0236V18.9878L8.05573 18.9535L8.05423 18.9191L8.05123 18.8863L8.04673 18.855L8.04222 18.8236L8.03622 18.7953L8.03021 18.7654L8.02271 18.7386L8.0152 18.7117L8.00619 18.6879L7.99719 18.6625L7.98668 18.6401L7.97467 18.6177L7.96266 18.5968L7.94915 18.5774L7.93564 18.558L7.92062 18.5401L7.90411 18.5237L7.8876 18.5073L7.86958 18.4939L7.85157 18.4804L7.83205 18.467L7.81254 18.4566L7.79152 18.4461L7.769 18.4372L7.74648 18.4282L7.72396 18.4208L7.69844 18.4148L7.67442 18.4103L7.6474 18.4058L7.62038 18.4029L7.59336 18.4014L7.56183 18.3999H7.5273L7.48677 18.3984L7.44173 18.3969H7.39069L7.33665 18.3954H7.2766L7.21205 18.3939H7.14299L7.06943 18.3924H6.98987L6.9073 18.3909H6.81873H6.72415H6.62657L6.52299 18.3894H6.4164H6.30381H6.18521H6.06361H5.93601H5.8039H5.66729H5.52618L5.37906 18.3909H5.22894H5.07281H4.91218L4.74554 18.3924H4.57591L4.40026 18.3939H4.22012L4.03547 18.3954H3.84481L3.65115 18.3969H3.45149L3.24733 18.3984L3.03716 18.3999H2.82398L2.6048 18.4014L2.52824 18.4058L2.45318 18.4073L2.37962 18.4088L2.30906 18.4073L2.24001 18.4043L2.17245 18.3999L2.1064 18.3939L2.04335 18.3849L1.9818 18.3745L1.92175 18.3641L1.8632 18.3506L1.80766 18.3357L1.75361 18.3178L1.70107 18.2999L1.65153 18.279L1.60349 18.2566L1.55695 18.2327L1.51192 18.2074L1.46988 18.1805L1.42935 18.1507L1.39032 18.1208L1.35279 18.088L1.31826 18.0537L1.28523 18.0179L1.25371 17.9806L1.22518 17.9403L1.19816 17.9L1.17264 17.8567L1.14862 17.812L1.12761 17.7657L1.10659 17.7165L1.09007 17.6672L1.07356 17.615L1.06005 17.5628L1.04804 17.5076L1.03753 17.4494L1.02852 17.3912L1.02252 17.3315L1.01801 17.2688L1.01501 17.2047L1.01351 17.133L1.01201 17.045L1.01051 16.9435V16.8257L1.00901 16.6929L1.00751 16.5451L1.006 16.3825V16.2049L1.00451 16.011L1.003 15.8035V15.5797L1.0015 15.341V15.0888V14.8202L1 14.5367V14.2368V13.9234V13.5952V13.2505V12.8924V12.5178V12.1284V11.724V11.3047V10.8705L1.0015 10.4199V9.95584V9.47537L1.003 8.97998V8.47116L1.00451 7.94592L1.006 7.40577V6.85069L1.00751 6.2792L1.00901 5.69428L1.01051 5.09295V4.47818L1.01201 3.84701L1.01351 3.20091L1.01501 2.53989L1.01051 2.46379L1.00751 2.39068V2.31756L1.00901 2.24743L1.01201 2.17879L1.01801 2.11314L1.02702 2.04898L1.03753 1.98631L1.04954 1.92513L1.06455 1.86693L1.08107 1.81023L1.10058 1.75502L1.1231 1.7028L1.14562 1.65207L1.17264 1.60283L1.19966 1.55508L1.23119 1.51031L1.26271 1.46704L1.29724 1.42526L1.33477 1.38646L1.37381 1.34916L1.41584 1.31335L1.45937 1.27903L1.50441 1.2477L1.55245 1.21785L1.60349 1.1895L1.65603 1.16413L1.71008 1.14026L1.76712 1.11788L1.82567 1.09699L1.88722 1.07908L1.95177 1.06267L2.01633 1.04924L2.08538 1.03581L2.15444 1.02536L2.228 1.01641L2.30156 1.01044L2.37812 1.00597L2.45768 1.00298L2.53875 1.00149H17.0345L17.1171 1H17.1982L17.2762 1.00298ZM7.22856 13.337H8.8754L12.5849 4.32599H11.0627L7.22856 13.337ZM4.91683 6.81921L4.59692 6.92082L4.43029 7.02229L4.28317 7.14763L4.15707 7.29535L4.05348 7.45948L3.97692 7.64003L3.92888 7.83401L3.91237 8.03694L3.92888 8.24137L3.97692 8.43535L4.05348 8.6144L4.15707 8.78003L4.28317 8.92626L4.43029 9.0516L4.59692 9.15456L4.77857 9.23066L4.97223 9.27841L5.17789 9.29482L5.38356 9.27841L5.57722 9.23066L5.75887 9.15456L5.9255 9.0516L6.07262 8.92626L6.19872 8.78003L6.30231 8.6144L6.37887 8.43535L6.42691 8.24137L6.44342 8.03694L6.42691 7.83401L6.37887 7.64003L6.30231 7.45948L6.19872 7.29535L6.07262 7.14763L5.9255 7.02229L5.75887 6.92082L5.57722 6.84323L5.38356 6.79548L5.17789 6.77907L4.97223 6.79548L4.91683 6.81921ZM14.1147 6.84323L13.933 6.92082L13.7679 7.02229L13.6193 7.14763L13.4932 7.29535L13.3896 7.45948L13.313 7.64003L13.265 7.83401L13.2485 8.03694L13.265 8.24137L13.313 8.43535L13.3896 8.6144L13.4932 8.78003L13.6193 8.92626L13.7679 9.0516L13.933 9.15456L14.1147 9.23066L14.3098 9.27841L14.514 9.29482L14.7196 9.27841L14.9133 9.23066L15.095 9.15456L15.2616 9.0516L15.4087 8.92626L15.5348 8.78003L15.6384 8.6144L15.715 8.43535L15.763 8.24137L15.7795 8.03694L15.763 7.83401L15.715 7.64003L15.6384 7.45948L15.5348 7.29535L15.4087 7.14763L15.2616 7.02229L15.095 6.92082L14.9133 6.84323L14.7196 6.79548L14.514 6.77907L14.3098 6.79548L14.1147 6.84323Z" fill="#1F859E" stroke="white" stroke-width="0.5"/>
<path d="M50.8271 3.04273L50.9367 3.04422H51.0553L51.1829 3.04572L51.3195 3.04721H51.4636L51.6167 3.0487H51.7789L51.95 3.05019H52.1287H52.3163L52.513 3.05168H52.7171H52.9303H53.1525L53.3837 3.05318H53.6224H53.8716H54.1268H54.3925H54.6657H54.9494L55.2392 3.05168H55.5394H55.8472H56.1639L56.4897 3.05019H56.8245H57.1668L57.518 3.0487H57.8768L58.2461 3.04721H58.6229L59.0087 3.04572L59.4036 3.04422H59.8059L60.2172 3.04273L60.6376 3.04124H61.0654L61.151 3.04422L61.2351 3.0487L61.3161 3.05616L61.3942 3.06661L61.4707 3.07705L61.5458 3.09048L61.6179 3.1054L61.6869 3.12181L61.756 3.13972L61.8205 3.16061L61.8851 3.18299L61.9451 3.20687L62.0052 3.23373L62.0622 3.26208L62.1163 3.29192L62.1688 3.32325L62.2199 3.35757L62.2679 3.39339L62.3144 3.43069L62.358 3.47098L62.3985 3.51126L62.439 3.55454L62.4766 3.60079L62.5111 3.64705L62.5441 3.69629L62.5741 3.74702L62.6027 3.79925L62.6297 3.85446L62.6537 3.91116L62.6762 3.96935L62.6957 4.02904L62.7123 4.09171L62.7288 4.15587L62.7423 4.22152L62.7528 4.29016L62.7618 4.36029L62.7678 4.43192L62.7723 4.50503L62.7753 4.58113V4.65723L62.7738 4.74079V4.8333L62.7723 4.93626V5.04817L62.7708 5.17053V5.30184L62.7693 5.4421V5.5928V5.75395L62.7678 5.92406V6.10312V6.29262L62.7663 6.49257V6.70146V6.91932V7.14762V7.38487V7.63256V7.8907V8.1563V8.43384V8.71884V9.01578V9.32017V9.63502V9.9603V10.2945L62.7678 10.6392V10.9929V11.3555L62.7693 11.7285V12.112V12.5044L62.7708 12.9058V13.3176L62.7723 13.7399V14.1711L62.7738 14.6113V15.0619L62.7753 15.5215L62.7723 15.6006L62.7678 15.6767L62.7603 15.7513L62.7528 15.8244L62.7423 15.8946L62.7318 15.9632L62.7183 16.0303L62.7032 16.0945L62.6882 16.1572L62.6702 16.2183L62.6507 16.278L62.6297 16.3347L62.6057 16.3885L62.5816 16.4422L62.5561 16.4929L62.5276 16.5407L62.4991 16.5884L62.4676 16.6332L62.4345 16.6749L62.4015 16.7167L62.3655 16.7555L62.3279 16.7913L62.2889 16.8271L62.2484 16.86L62.2048 16.8898L62.1613 16.9197L62.1163 16.9465L62.0682 16.9704L62.0187 16.9943L61.9692 17.0152L61.9166 17.0331L61.8626 17.051L61.807 17.0659L61.75 17.0793L61.6914 17.0898L61.6314 17.0987L61.5683 17.1062L61.5053 17.1107L61.4407 17.1136L61.3732 17.1151H59.8479L59.8239 17.1092L59.8029 17.1032L59.7819 17.0972L59.7609 17.0913L59.7398 17.0823L59.7203 17.0748L59.7023 17.0659L59.6828 17.0569L59.6648 17.0465L59.6483 17.036L59.6318 17.0256L59.6152 17.0137L59.6002 17.0002L59.5852 16.9883L59.5702 16.9734L59.5567 16.9599L59.5447 16.945L59.5312 16.9286L59.5192 16.9137L59.5087 16.8958L59.4981 16.8794L59.4876 16.8615L59.4786 16.8421L59.4696 16.8227L59.4606 16.8033L59.4531 16.7824L59.4471 16.7615L59.4396 16.7406L59.4336 16.7182L59.4291 16.6943L59.4246 16.672L59.4201 16.6466L59.4171 16.6227L59.4141 16.5974L59.4111 16.5705L59.4096 16.5451L59.4081 16.5168V16.4899V16.4616V16.4317L59.4096 16.4019V16.3691L59.4111 16.3347L59.4126 16.2974V16.2586L59.4141 16.2169V16.1736V16.1288L59.4156 16.0811V16.0318V15.9796L59.4171 15.9259V15.8692V15.811V15.7513V15.6886V15.6245L59.4186 15.5573V15.4887V15.4171V15.344V15.2693L59.4171 15.1918V15.1127V15.0306V14.947V14.8605V14.7725L59.4156 14.6829V14.5904V14.4964L59.4141 14.3994V14.3009V14.1995L59.4126 14.0965V13.9921L59.4111 13.8846L59.4096 13.7757V13.6638L59.4081 13.5504L59.4096 13.522L59.4081 13.4952V13.4683L59.4051 13.4415L59.4036 13.4176L59.3991 13.3922L59.3946 13.3684L59.3901 13.346L59.3841 13.3236L59.378 13.3027L59.3705 13.2818L59.3615 13.2609L59.3525 13.243L59.342 13.2236L59.3315 13.2057L59.3195 13.1893L59.3075 13.1729L59.294 13.1565L59.2805 13.1416L59.2655 13.1281L59.2504 13.1147L59.2339 13.1028L59.2159 13.0908L59.1979 13.0789L59.1784 13.0684L59.1589 13.0595L59.1394 13.0505L59.1168 13.0416L59.0958 13.0341L59.0718 13.0267L59.0478 13.0207L59.0238 13.0162L58.9982 13.0117L58.9727 13.0073L58.9457 13.0043L58.9172 13.0028L58.8886 13.0013L58.8601 12.9998H58.8286H58.7986L58.764 13.0013H58.7235L58.6755 13.0028L58.6229 13.0043H58.5629H58.4983L58.4263 13.0058H58.3482L58.2641 13.0073H58.1741H58.078L57.9759 13.0088H57.8678H57.7522H57.6306H57.5045H57.3709L57.2313 13.0102H57.0857H56.9341H56.7749H56.6113L56.4402 13.0088H56.2645H56.0814H55.8922H55.6971H55.4959L55.2887 13.0073H55.0756H54.8549L54.6297 13.0058H54.397L54.1583 13.0043H53.9136H53.6629L53.4062 13.0028L53.1435 13.0013H52.8748L52.5985 12.9998L52.5745 13.0013L52.552 13.0028L52.5295 13.0058L52.5085 13.0073L52.4874 13.0102L52.4664 13.0147L52.4469 13.0177L52.4274 13.0222L52.4079 13.0281L52.3899 13.0326L52.3719 13.0386L52.3553 13.0461L52.3388 13.052L52.3238 13.0595L52.3073 13.0669L52.2938 13.0759L52.2788 13.0849L52.2653 13.0938L52.2533 13.1042L52.2412 13.1132L52.2292 13.1251L52.2187 13.1356L52.2082 13.1475L52.1977 13.1595L52.1887 13.1714L52.1797 13.1848L52.1722 13.1983L52.1647 13.2132L52.1572 13.2266L52.1512 13.2415L52.1452 13.2579L52.1407 13.2729L52.1362 13.2893L52.1332 13.3057L52.1287 13.3236L52.1272 13.3415L52.1242 13.3594L52.1227 13.3788V13.3982L52.1212 13.4176V16.4317V16.4646L52.1182 16.4959L52.1151 16.5272L52.1121 16.5586L52.1076 16.5884L52.1031 16.6168L52.0971 16.6451L52.0911 16.672L52.0836 16.6973L52.0761 16.7227L52.0686 16.7481L52.0581 16.7719L52.0491 16.7958L52.0386 16.8167L52.0266 16.8391L52.0146 16.86L52.0026 16.8794L51.989 16.8988L51.974 16.9167L51.959 16.9346L51.944 16.951L51.9275 16.9674L51.911 16.9823L51.893 16.9958L51.875 17.0092L51.8554 17.0226L51.8359 17.0346L51.8149 17.045L51.7939 17.0554L51.7714 17.0644L51.7488 17.0733L51.7248 17.0808L51.7008 17.0883L51.6753 17.0942L51.6498 17.1002L51.6242 17.1047L51.5972 17.1077L51.5687 17.1107L51.5402 17.1136L51.5117 17.1151H51.4816L51.4516 17.1166H51.4216L51.3916 17.1181H51.3615L51.3315 17.1196H51.3015L51.27 17.1211H51.2399H51.2084L51.1769 17.1226H51.1469H51.1153H51.0838H51.0523L51.0208 17.1241H50.9877H50.9562H50.9247H50.8917H50.8601H50.8271H50.7941H50.761L50.728 17.1226H50.695H50.662H50.6289H50.5944L50.5614 17.1211H50.5269H50.4938L50.4593 17.1196H50.4248L50.3902 17.1181H50.3557L50.3212 17.1166H50.2867L50.2506 17.1151H50.2161L50.1486 17.1136L50.081 17.1107L50.0164 17.1062L49.9534 17.0987L49.8918 17.0883L49.8333 17.0763L49.7747 17.0614L49.7192 17.045L49.6652 17.0256L49.6126 17.0047L49.5616 16.9808L49.512 16.9555L49.464 16.9271L49.419 16.8973L49.3754 16.8644L49.3334 16.8286L49.2929 16.7913L49.2538 16.7525L49.2163 16.7108L49.1818 16.666L49.1472 16.6197L49.1157 16.572L49.0857 16.5198L49.0572 16.4675L49.0301 16.4108L49.0061 16.3541L48.9821 16.293L48.9611 16.2318L48.9416 16.1661L48.9236 16.099L48.907 16.0303L48.892 15.9587L48.88 15.8841L48.8695 15.808L48.859 15.7304L48.8515 15.6498L48.8455 15.5663L48.8425 15.4812L48.8395 15.3932V15.3037V15.2082V15.1037V14.9918V14.8695V14.7396V14.5994V14.4517V14.295V14.1293L48.841 13.9563V13.7727V13.5817V13.3803V13.1714V12.9535V12.7267V12.491V12.2463V11.9941V11.7315V11.4614V11.1824V10.8944V10.5974V10.2916V9.97821V9.65442V9.32316V8.98146V8.6323L48.8395 8.27418V7.90861V7.53259V7.14762V6.75518V6.3523V5.94196V5.52267V5.09443V4.65723L48.841 4.57665L48.8455 4.49757L48.8515 4.42147L48.8605 4.34537L48.871 4.27375L48.8845 4.20213L48.8995 4.13349L48.916 4.06783L48.9371 4.00367L48.9581 3.941L48.9821 3.88132L49.0076 3.82312L49.0361 3.76642L49.0677 3.7127L49.1007 3.66048L49.1352 3.61124L49.1728 3.56349L49.2118 3.51723L49.2523 3.47396L49.2974 3.43218L49.3424 3.39339L49.3904 3.35608L49.4415 3.32027L49.494 3.28744L49.5481 3.25611L49.6051 3.22776L49.6637 3.2009L49.7252 3.17553L49.7883 3.15315L49.8543 3.13226L49.9219 3.11435L49.9924 3.09794L50.0645 3.08302L50.1395 3.07108L50.2161 3.06064L50.2942 3.05168L50.3752 3.04572L50.4593 3.04273L50.5449 3.03975L50.6319 3.04124H50.725L50.8271 3.04273ZM43.6287 3.04124H43.6708H43.7128H43.7579H43.8044L43.8509 3.04273H43.899H43.95H44.0011L44.0536 3.04422H44.1076L44.1647 3.04572H44.2217L44.2803 3.04721H44.3403L44.4004 3.0487H44.4634L44.528 3.05019L44.5925 3.05168L44.6541 3.05467L44.7156 3.06064L44.7757 3.06661L44.8342 3.07556L44.8898 3.086L44.9453 3.09794L44.9994 3.11137L45.0504 3.12629L45.1014 3.1442L45.151 3.1621L45.199 3.18299L45.2441 3.20538L45.2891 3.22776L45.3326 3.25312L45.3747 3.28147L45.4137 3.30982L45.4527 3.33967L45.4903 3.37249L45.5263 3.40532L45.5608 3.44113L45.5923 3.47844L45.6239 3.51723L45.6539 3.55752L45.6824 3.60079L45.7094 3.64406L45.7335 3.69032L45.7575 3.73658L45.78 3.78582L45.801 3.83655L45.8205 3.88878L45.8385 3.94249L45.8536 3.99919L45.8686 4.0559L45.8821 4.11558L45.8941 4.17676L45.9046 4.23794L45.9136 4.3021L45.9196 4.36775L45.9256 4.43639V5.2899L45.9241 5.7077L45.9226 6.11804L45.9211 6.52092L45.9196 6.91335L45.9181 7.29832L45.9166 7.67583L45.9151 8.04439L45.9136 8.404L45.9121 8.75615V9.09934L45.9106 9.43507V9.76185L45.9091 10.0797V10.39L45.9076 10.6915V10.9839V11.2689V11.545V11.8135V12.0732V12.3254V12.5671V12.8028V13.0281V13.246L45.9091 13.4564V13.6578L45.9106 13.8503V14.0339L45.9121 14.2099V14.3785L45.9136 14.5367L45.9151 14.6889L45.9166 14.8307L45.9181 14.9649L45.9196 15.0903L45.9211 15.2082L45.9226 15.3171L45.9241 15.4186L45.9256 15.5111V15.6394L45.9196 15.7603L45.9061 15.8752L45.8881 15.9826L45.8641 16.0841L45.8355 16.1796L45.801 16.2676L45.762 16.3512L45.7184 16.4287L45.6719 16.5004L45.6194 16.566L45.5638 16.6287L45.5038 16.6839L45.4407 16.7361L45.3747 16.7839L45.3056 16.8271L45.2336 16.8659L45.1585 16.9003L45.0819 16.9316L45.0039 16.9585L44.9228 16.9838L44.8402 17.0047L44.7562 17.0226L44.6721 17.039L44.5865 17.0525L44.501 17.0629L44.4139 17.0719L44.3268 17.0793L44.2397 17.0838L44.1527 17.0883L44.0671 17.0913L43.9815 17.0927H43.8975H43.8134H43.7308L43.6513 17.0913L43.5732 17.0898H43.4966L43.4231 17.0883H43.351H43.3045L43.2595 17.0868L43.2159 17.0853L43.1739 17.0823L43.1318 17.0778L43.0928 17.0733L43.0538 17.0659L43.0163 17.0599L42.9802 17.051L42.9442 17.042L42.9112 17.0316L42.8781 17.0211L42.8466 17.0092L42.8166 16.9958L42.7866 16.9808L42.7595 16.9659L42.7325 16.9495L42.707 16.9331L42.683 16.9152L42.659 16.8958L42.6379 16.8764L42.6169 16.8555L42.5974 16.8331L42.5794 16.8092L42.5629 16.7854L42.5464 16.76L42.5329 16.7346L42.5194 16.7078L42.5073 16.6794L42.4968 16.6511L42.4863 16.6212L42.4788 16.5899L42.4713 16.5586L42.4653 16.5257L42.4608 16.4914L42.4563 16.4556L42.4548 16.4198L42.4533 16.384V16.3452L42.4548 16.3064V15.7334L42.4533 15.1724V14.6262V14.0935V13.5743V13.0684V12.576V12.0956L42.4518 11.6315V11.1794V10.7407V10.3154V9.9036V9.50669V9.12172V8.75018V8.39355V8.04887V7.71911V7.40277V7.09837V6.8089V6.53285V6.27024V6.02105V5.78529V5.56296V5.35406V5.15859V4.97655V4.80943L42.4533 4.65425V4.51249V4.38566V4.27076V4.17079V4.08275V4.00964L42.4548 3.94995V3.9037V3.86341L42.4563 3.82611L42.4593 3.78731L42.4608 3.7515L42.4653 3.71569L42.4698 3.68137L42.4743 3.64705L42.4803 3.61422L42.4863 3.58289L42.4938 3.55155L42.5028 3.52171L42.5118 3.49187L42.5208 3.46352L42.5314 3.43666L42.5419 3.4098L42.5539 3.38443L42.5659 3.36056L42.5794 3.33668L42.5944 3.31281L42.6079 3.29192L42.6244 3.27103L42.6394 3.25163L42.6575 3.23223L42.6755 3.21433L42.6935 3.19642L42.713 3.18001L42.7325 3.16509L42.7535 3.15017L42.7746 3.13674L42.7971 3.1248L42.8196 3.11286L42.8436 3.10242L42.8676 3.09197L42.8932 3.08302L42.9187 3.07556L42.9457 3.0681L42.9727 3.06213L43.0012 3.05765L43.0298 3.05318L43.0598 3.05019L43.0688 3.0487H43.0793L43.0913 3.04721H43.1048L43.1198 3.04572H43.1363L43.1544 3.04422H43.1724L43.1934 3.04273H43.2159H43.2384H43.264L43.2895 3.04124H43.3165H43.3465H43.3765H43.4081H43.4411H43.4756H43.5117H43.5492H43.5882H43.6287ZM37.9872 2.94873L38.0757 2.9547L38.1628 2.96216L38.2514 2.97409L38.34 2.98752L38.4285 3.00543L38.5156 3.02483L38.6012 3.05019L38.6852 3.07705L38.7678 3.10988L38.8489 3.14569L38.9284 3.18747L39.0035 3.23373L39.0771 3.28446L39.1476 3.34116L39.2137 3.40383L39.2767 3.47247L39.3353 3.54708L39.3908 3.62914L39.4403 3.71718L39.4854 3.81268L39.5244 3.91563L39.5589 4.02456L39.5875 4.14393L39.61 4.26927L39.6265 4.40357L39.6355 4.54681L39.6385 4.69901L39.637 4.80495V4.91239L39.6355 5.02131V5.13173L39.634 5.24364V5.35704V5.47194L39.6325 5.58982V5.7077V5.82856L39.631 5.95092V6.07476V6.2001V6.32694V6.45675L39.6295 6.58657V6.71937V6.85217V6.98796V7.12523V7.264V7.40576V7.54751V7.69225L39.631 7.83699V7.98471V8.13392V8.28463V8.43683L39.6325 8.59052V8.74719V8.90387L39.634 9.06353V9.22468V9.38583L39.6355 9.55146V9.71708L39.637 9.8842V10.0528L39.6385 10.2244V15.6513L39.6325 15.723L39.625 15.7931L39.616 15.8602L39.6055 15.9274L39.592 15.9915L39.577 16.0542L39.5604 16.1154L39.5424 16.1736L39.5229 16.2318L39.5004 16.287L39.4764 16.3392L39.4509 16.3914L39.4238 16.4407L39.3938 16.4884L39.3623 16.5347L39.3293 16.5794L39.2947 16.6212L39.2587 16.6615L39.2197 16.7003L39.1791 16.7361L39.1371 16.7719L39.0921 16.8048L39.047 16.8361L38.999 16.8644L38.9494 16.8928L38.8969 16.9182L38.8444 16.942L38.7888 16.9629L38.7318 16.9838L38.6732 17.0017L38.6132 17.0181L38.5501 17.0316L38.4856 17.045L38.4195 17.0554L38.3505 17.0644L38.2814 17.0719L38.2093 17.0763L38.1358 17.0793L38.0607 17.0808H37.9827L37.9061 17.0793L37.8325 17.0778L37.7605 17.0763H37.6914L37.6254 17.0748L37.5608 17.0733H37.4993L37.4407 17.0719H37.3852L37.3326 17.0704H37.2816L37.2336 17.0689H37.1885H37.145L37.1044 17.0674H37.0669H37.0324H37.0009H36.9708H36.9438H36.9198H36.8973H36.8778H36.8613H36.8477L36.8357 17.0689H36.8282H36.8222L36.8177 17.0704L36.8192 17.0719H36.8237L36.8297 17.0733H36.8402L36.8522 17.0748L36.8673 17.0763H36.8853L36.9048 17.0778L36.9273 17.0793L36.9528 17.0808L36.9168 17.0823H36.8823L36.8492 17.0808L36.8162 17.0793L36.7832 17.0763L36.7532 17.0733L36.7216 17.0689L36.6931 17.0644L36.6646 17.0584L36.6376 17.051L36.6105 17.0435L36.585 17.0346L36.561 17.0256L36.537 17.0137L36.5145 17.0032L36.492 16.9913L36.4709 16.9779L36.4514 16.9629L36.4334 16.948L36.4139 16.9331L36.3974 16.9152L36.3809 16.8988L36.3658 16.8794L36.3508 16.86L36.3373 16.8391L36.3253 16.8182L36.3133 16.7958L36.3028 16.7734L36.2938 16.7496L36.2848 16.7242L36.2773 16.6988L36.2698 16.672L36.2638 16.6451L36.2593 16.6168L36.2548 16.5869L36.2518 16.5571L36.2488 16.5257L36.2473 16.4944V16.4616V16.4287L36.2488 16.3929V16.3526L36.2503 16.3109V16.2661L36.2518 16.2169V16.1646L36.2533 16.1109V16.0512L36.2548 15.9901V15.9259V15.8573V15.7871L36.2563 15.7125V15.6349V15.5529V15.4693V15.3827V15.2917V15.1977V15.1007V15.0008V14.8978V14.7904V14.6814V14.568V14.4517V14.3323L36.2548 14.2084V14.0831V13.9533V13.822L36.2533 13.6862V13.5474L36.2518 13.4042V13.2594L36.2503 13.1102V12.9595L36.2488 12.8043V12.6462L36.2473 12.485L36.2518 12.4626L36.2533 12.4402L36.2563 12.4194L36.2578 12.3985V12.3776V12.3582L36.2563 12.3388L36.2548 12.3209L36.2533 12.303L36.2503 12.2851L36.2458 12.2686L36.2412 12.2522L36.2367 12.2373L36.2307 12.2209L36.2247 12.2075L36.2172 12.1925L36.2082 12.1791L36.2007 12.1672L36.1902 12.1552L36.1812 12.1433L36.1692 12.1314L36.1587 12.1209L36.1467 12.112L36.1332 12.1015L36.1196 12.0941L36.1046 12.0851L36.0896 12.0777L36.0731 12.0702L36.0566 12.0642L36.0401 12.0583L36.0221 12.0523L36.0026 12.0478L35.983 12.0433L35.9635 12.0404L35.9425 12.0359L35.9215 12.0344L35.899 12.0314L35.8765 12.0299H35.8524H35.8284H29.3657L29.3491 12.0269L29.3326 12.0239L29.3176 12.0224H29.3011H29.2861H29.2726L29.2591 12.0239L29.2456 12.0269L29.2321 12.0299L29.2185 12.0344L29.2065 12.0389L29.1945 12.0448L29.1825 12.0508L29.172 12.0583L29.1615 12.0672L29.151 12.0762L29.1405 12.0851L29.1315 12.0956L29.1225 12.1075L29.1135 12.1194L29.1059 12.1314L29.0984 12.1448L29.0909 12.1597L29.0834 12.1746L29.0774 12.1911L29.0699 12.2075L29.0654 12.2254L29.0594 12.2448L29.0549 12.2642L29.0504 12.2836L29.0459 12.3045L29.0414 12.3254L29.0384 12.3492L29.0354 12.3716L29.0339 12.3955L29.0309 12.4208L29.0294 12.4462L29.0279 12.4731V12.4999L29.0264 12.5283V12.5581V12.591V12.6283V12.6685L29.0249 12.7118V12.7581V12.8073V12.861V12.9177V12.9774V13.0401V13.1072V13.1759V13.249V13.3251V13.4042V13.4877V13.5743V13.6623V13.7563V13.8518V13.9503V14.0533V14.1592V14.2681V14.3815V14.4964V14.6158V14.7381V14.8635V14.9933V15.1246V15.2604V15.3992V15.5409L29.0264 15.6871V15.8349V15.9871V16.1423V16.3004V16.3392L29.0249 16.375L29.0219 16.4108L29.0189 16.4466L29.0144 16.4795L29.0084 16.5138L29.0024 16.5451L28.9949 16.5765L28.9859 16.6063L28.9768 16.6362L28.9663 16.6645L28.9558 16.6914L28.9438 16.7182L28.9303 16.7436L28.9168 16.769L28.9018 16.7913L28.8853 16.8152L28.8688 16.8361L28.8507 16.857L28.8327 16.8779L28.8132 16.8958L28.7922 16.9152L28.7697 16.9316L28.7472 16.948L28.7246 16.9629L28.7006 16.9779L28.6751 16.9913L28.6481 17.0032L28.6211 17.0152L28.5925 17.0256L28.564 17.036L28.534 17.0435L28.5025 17.0525L28.4709 17.0584L28.4379 17.0644L28.4034 17.0704L28.3689 17.0733L28.3328 17.0778L28.2968 17.0793L28.2593 17.0808H28.2202L28.1842 17.0823H28.1482L28.1121 17.0838H28.0776L28.0431 17.0853H28.0101H27.977L27.9455 17.0868H27.914H27.884L27.8539 17.0883H27.8239H27.7969H27.7684H27.7413H27.7158H27.6903H27.6663H27.6423H27.6182H27.5972H27.5747H27.5537H27.5342H27.5147H27.4951H27.4771L27.4606 17.0868H27.4441H27.4276L27.4126 17.0853H27.3991H27.3856L27.372 17.0838H27.36L27.348 17.0823H27.3375L27.327 17.0808H27.318L27.2399 17.0838L27.1634 17.0853L27.0883 17.0838L27.0147 17.0793L26.9427 17.0733L26.8736 17.0629L26.8076 17.051L26.7415 17.0375L26.6785 17.0196L26.6169 17.0002L26.5569 16.9779L26.4998 16.954L26.4443 16.9271L26.3902 16.8973L26.3377 16.8644L26.2882 16.8286L26.2401 16.7913L26.1951 16.751L26.15 16.7093L26.108 16.663L26.0675 16.6153L26.0299 16.5645L25.9939 16.5123L25.9594 16.4571L25.9264 16.3989L25.8963 16.3377L25.8678 16.2751L25.8408 16.2079L25.8168 16.1408L25.7928 16.0691L25.7732 15.996L25.7537 15.9199L25.7372 15.8408L25.7222 15.7588L25.7087 15.6752L25.6982 15.5887L25.6877 15.5006L25.6817 15.4081L25.6757 15.3141L25.6727 15.2171L25.6697 15.1157L25.6682 15.0052L25.6652 14.8859L25.6622 14.7575L25.6607 14.6218L25.6591 14.477L25.6561 14.3233L25.6546 14.1622L25.6531 13.9921L25.6501 13.8145L25.6486 13.628L25.6471 13.4325L25.6456 13.2281L25.6441 13.0162L25.6426 12.7954L25.6396 12.5656L25.6381 12.3283V12.0821L25.6366 11.827L25.6351 11.5644L25.6336 11.2928L25.6321 11.0123L25.6306 10.7243V10.4273L25.6291 10.1229L25.6276 9.80811V9.4858L25.6261 9.15604L25.6246 8.81583V8.46816L25.6231 8.11303V7.74746V7.37442L25.6216 6.99243V6.60298V6.20458L25.6201 5.79723V5.38241V4.95864V4.52592L25.6291 4.44684L25.6396 4.36925L25.6516 4.29464L25.6652 4.22152L25.6802 4.15139L25.6967 4.08126L25.7162 4.01561L25.7357 3.94995L25.7582 3.88728L25.7807 3.82611L25.8063 3.76791L25.8318 3.71121L25.8603 3.656L25.8903 3.60378L25.9204 3.55304L25.9534 3.5053L25.9879 3.45904L26.0239 3.41427L26.0615 3.371L26.1005 3.33072L26.141 3.29341L26.1846 3.2576L26.2281 3.22328L26.2731 3.19045L26.3197 3.16061L26.3692 3.13226L26.4188 3.10689L26.4713 3.08302L26.5254 3.06064L26.5794 3.04124L26.6364 3.02333L26.695 3.00692L26.755 2.99349L26.8151 2.98155L26.8781 2.9726L26.9427 2.96514L27.0087 2.95917L27.0778 2.95619L27.1469 2.9547H27.2174L27.288 2.95619L27.357 2.95768L27.4231 2.95917L27.4876 2.96066L27.5492 2.96216L27.6092 2.96365H27.6663L27.7218 2.96514L27.7744 2.96663H27.8254L27.875 2.96812H27.9215L27.965 2.96962H28.0086H28.0476H28.0866L28.1212 2.97111H28.1557H28.1872H28.2157H28.2427H28.2683H28.2908L28.3103 2.96962H28.3298H28.3448H28.3598L28.3704 2.96812H28.3809L28.3884 2.96663H28.3929L28.3959 2.96514L28.3974 2.96365H28.3959L28.3929 2.96216L28.3869 2.96066L28.3794 2.95917L28.3689 2.95768L28.3568 2.95619L28.3418 2.9547L28.3764 2.95768L28.4094 2.96216L28.4409 2.96812L28.4724 2.97409L28.5025 2.98006L28.5325 2.98752L28.561 2.99498L28.588 3.00394L28.6151 3.01289L28.6421 3.02333L28.6676 3.03378L28.6916 3.04572L28.7141 3.05914L28.7382 3.07108L28.7592 3.086L28.7802 3.09943L28.7997 3.11585L28.8192 3.13077L28.8387 3.14718L28.8552 3.16509L28.8718 3.18299L28.8883 3.20239L28.9033 3.22179L28.9168 3.24268L28.9303 3.26357L28.9423 3.28595L28.9543 3.30833L28.9648 3.33072L28.9753 3.35459L28.9844 3.37996L28.9919 3.40532L28.9994 3.43218L29.0054 3.45904L29.0114 3.4859L29.0159 3.51425L29.0204 3.54409L29.0234 3.57393L29.0249 3.60378L29.0264 3.63511V3.66794V8.38162L29.0249 8.39803L29.0234 8.41444L29.0219 8.42937L29.0204 8.44429V8.45772V8.47264L29.0219 8.48607L29.0234 8.4995L29.0249 8.51143L29.0264 8.52337L29.0294 8.53531L29.0324 8.54725L29.0369 8.55918L29.0399 8.56963L29.0444 8.58007L29.0504 8.58903L29.0564 8.59947L29.0624 8.60842L29.0684 8.61738L29.0759 8.62484L29.0834 8.63379L29.0909 8.64125L29.0999 8.64722L29.109 8.65468L29.118 8.66065L29.1285 8.66662L29.139 8.67259L29.1495 8.67706L29.1615 8.68154L29.1735 8.68601L29.1855 8.69049L29.199 8.69348L29.2125 8.69646L29.226 8.69944L29.2411 8.70094L29.2561 8.70243L29.2711 8.70392L29.2876 8.70541H29.3026L29.3206 8.7069H35.938L35.953 8.7084L35.968 8.70989L35.983 8.71138H35.9965H36.0101H36.0236L36.0371 8.70989L36.0491 8.7084L36.0611 8.7069L36.0731 8.70392L36.0851 8.70094L36.0956 8.69795L36.1061 8.69348L36.1166 8.689L36.1272 8.68303L36.1362 8.67706L36.1452 8.67109L36.1542 8.66512L36.1617 8.65766L36.1707 8.6502L36.1782 8.64125L36.1842 8.6323L36.1917 8.62334L36.1977 8.6129L36.2037 8.60245L36.2097 8.59201L36.2142 8.58007L36.2202 8.56814L36.2247 8.55471L36.2277 8.54277L36.2322 8.52785L36.2352 8.51442L36.2382 8.4995L36.2412 8.48458L36.2427 8.46816L36.2443 8.45175L36.2458 8.43533L36.2473 8.41892V8.40101V8.38162V3.7321L36.2503 3.69331L36.2548 3.65451L36.2593 3.61721L36.2638 3.58139L36.2698 3.54708L36.2773 3.51276L36.2848 3.47993L36.2938 3.4471L36.3028 3.41577L36.3133 3.38592L36.3253 3.35757L36.3373 3.32922L36.3493 3.30236L36.3643 3.27551L36.3779 3.25014L36.3944 3.22626L36.4094 3.20388L36.4274 3.1815L36.4454 3.16061L36.4634 3.14121L36.4829 3.12181L36.504 3.10391L36.525 3.0875L36.5475 3.07108L36.57 3.05616L36.594 3.04273L36.6181 3.0293L36.6436 3.01737L36.6691 3.00692L36.6961 2.99797L36.7246 2.98901L36.7532 2.98006L36.7832 2.97409L36.8132 2.96812L36.8447 2.96365L36.8763 2.95917L36.9093 2.95619L36.9438 2.9547H36.9783H37.0144H37.0699H37.13L37.1945 2.9532L37.2621 2.95171L37.3326 2.94873L37.4077 2.94574L37.4843 2.94425L37.5638 2.94127H37.6449L37.729 2.93977L37.813 2.94127L37.9001 2.94425L37.9872 2.94873ZM52.2367 6.38961H52.2307L52.2247 6.3911L52.2202 6.39259L52.2157 6.39408L52.2097 6.39558L52.2052 6.39856L52.2007 6.40154L52.1962 6.40453L52.1917 6.40751L52.1872 6.4105L52.1827 6.41348L52.1797 6.41796L52.1767 6.42094L52.1722 6.42542L52.1692 6.42989L52.1662 6.43437L52.1647 6.43885L52.1617 6.44482L52.1602 6.44929L52.1587 6.45377L52.1572 6.45974L52.1557 6.46421L52.1542 6.47018V6.47615V6.48212V9.55295V9.55892V9.56489L52.1557 9.56936L52.1572 9.57533L52.1587 9.5813L52.1602 9.58578L52.1617 9.59025L52.1647 9.59622L52.1662 9.6007L52.1692 9.60517L52.1722 9.60965L52.1767 9.61264L52.1797 9.61711L52.1827 9.62159L52.1872 9.62457L52.1917 9.62756L52.1962 9.63054L52.2007 9.63352L52.2052 9.63651L52.2097 9.638L52.2157 9.64099L52.2202 9.64248L52.2247 9.64397L52.2307 9.64546H52.2367L52.2428 9.64695H52.2473H59.3135H59.3195L59.3255 9.64546H59.33L59.336 9.64397L59.3405 9.64248L59.3465 9.64099L59.351 9.638L59.357 9.63651L59.3615 9.63352L59.366 9.63054L59.3705 9.62756L59.3735 9.62457L59.378 9.62159L59.3825 9.61711L59.3856 9.61264L59.3886 9.60965L59.3916 9.60517L59.3946 9.6007L59.3976 9.59622L59.3991 9.59025L59.4021 9.58578L59.4036 9.5813L59.4051 9.57533L59.4066 9.56936V9.56489L59.4081 9.55892V9.55295V6.48212V6.47615L59.4066 6.47018V6.46421L59.4051 6.45974L59.4036 6.45377L59.4021 6.44929L59.3991 6.44482L59.3976 6.43885L59.3946 6.43437L59.3916 6.42989L59.3886 6.42542L59.3856 6.42094L59.3825 6.41796L59.378 6.41348L59.3735 6.4105L59.3705 6.40751L59.366 6.40453L59.3615 6.40154L59.357 6.39856L59.351 6.39558L59.3465 6.39408L59.3405 6.39259L59.336 6.3911L59.33 6.38961H59.3255L59.3195 6.38811H59.3135H52.2473H52.2428L52.2367 6.38961Z" fill="#32393E"/>
<path d="M75.4113 16.6033C74.2357 16.6033 73.1742 16.3423 72.2268 15.8205C71.2908 15.2986 70.5489 14.5782 70.0009 13.6592C69.4646 12.7403 69.1963 11.7078 69.1963 10.562C69.1963 9.41606 69.4646 8.38363 70.0009 7.46465C70.5489 6.54567 71.2908 5.82525 72.2268 5.30336C73.1742 4.78147 74.2357 4.52052 75.4113 4.52052C76.2789 4.52052 77.0778 4.66235 77.8085 4.94598C78.539 5.21828 79.1611 5.62671 79.6747 6.17128L79.1269 6.73288C78.168 5.79122 76.9409 5.32039 75.4457 5.32039C74.4413 5.32039 73.5281 5.54728 72.7061 6.0011C71.8844 6.45492 71.2394 7.08459 70.7715 7.89011C70.3034 8.68429 70.0694 9.5749 70.0694 10.562C70.0694 11.549 70.3034 12.4453 70.7715 13.2508C71.2394 14.045 71.8844 14.669 72.7061 15.1228C73.5281 15.5766 74.4413 15.8035 75.4457 15.8035C76.9295 15.8035 78.1566 15.3269 79.1269 14.374L79.6747 14.9356C79.1611 15.4802 78.5333 15.8943 77.7914 16.1779C77.0607 16.4616 76.2675 16.6033 75.4113 16.6033ZM87.4337 16.6033C86.2581 16.6033 85.1964 16.3423 84.249 15.8205C83.3018 15.2873 82.554 14.5612 82.0062 13.6422C81.4697 12.7232 81.2014 11.6965 81.2014 10.562C81.2014 9.4274 81.4697 8.40065 82.0062 7.48168C82.554 6.5627 83.3018 5.84226 84.249 5.32039C85.1964 4.78714 86.2581 4.52052 87.4337 4.52052C88.6095 4.52052 89.671 4.78147 90.6184 5.30336C91.5657 5.82525 92.3077 6.54567 92.8441 7.46465C93.392 8.38363 93.666 9.41606 93.666 10.562C93.666 11.7078 93.392 12.7403 92.8441 13.6592C92.3077 14.5782 91.5657 15.2986 90.6184 15.8205C89.671 16.3423 88.6095 16.6033 87.4337 16.6033ZM87.4337 15.8035C88.4382 15.8035 89.3457 15.5766 90.156 15.1228C90.9665 14.669 91.6057 14.045 92.0737 13.2508C92.5416 12.4453 92.7756 11.549 92.7756 10.562C92.7756 9.5749 92.5416 8.68429 92.0737 7.89011C91.6057 7.08459 90.9665 6.45492 90.156 6.0011C89.3457 5.54728 88.4382 5.32039 87.4337 5.32039C86.4292 5.32039 85.516 5.54728 84.6943 6.0011C83.8838 6.45492 83.2445 7.08459 82.7766 7.89011C82.3087 8.68429 82.0747 9.5749 82.0747 10.562C82.0747 11.549 82.3087 12.4453 82.7766 13.2508C83.2445 14.045 83.8838 14.669 84.6943 15.1228C85.516 15.5766 86.4292 15.8035 87.4337 15.8035ZM106.454 4.60562V16.5183H105.735L97.5678 6.17128V16.5183H96.6946V4.60562H97.4309L105.581 14.9526V4.60562H106.454ZM120.399 4.60562V16.5183H119.68L111.513 6.17128V16.5183H110.639V4.60562H111.376L119.525 14.9526V4.60562H120.399ZM132.854 15.7355V16.5183H124.584V4.60562H132.597V5.38846H125.457V10.0854H131.844V10.8512H125.457V15.7355H132.854ZM141.039 16.6033C139.863 16.6033 138.801 16.3423 137.854 15.8205C136.918 15.2986 136.176 14.5782 135.628 13.6592C135.092 12.7403 134.823 11.7078 134.823 10.562C134.823 9.41606 135.092 8.38363 135.628 7.46465C136.176 6.54567 136.918 5.82525 137.854 5.30336C138.801 4.78147 139.863 4.52052 141.039 4.52052C141.906 4.52052 142.705 4.66235 143.436 4.94598C144.166 5.21828 144.788 5.62671 145.302 6.17128L144.754 6.73288C143.795 5.79122 142.568 5.32039 141.073 5.32039C140.068 5.32039 139.155 5.54728 138.333 6.0011C137.512 6.45492 136.867 7.08459 136.399 7.89011C135.931 8.68429 135.697 9.5749 135.697 10.562C135.697 11.549 135.931 12.4453 136.399 13.2508C136.867 14.045 137.512 14.669 138.333 15.1228C139.155 15.5766 140.068 15.8035 141.073 15.8035C142.557 15.8035 143.784 15.3269 144.754 14.374L145.302 14.9356C144.788 15.4802 144.16 15.8943 143.419 16.1779C142.688 16.4616 141.895 16.6033 141.039 16.6033ZM150.37 5.38846H146.056V4.60562H155.558V5.38846H151.243V16.5183H150.37V5.38846ZM166.419 4.60562C167.925 4.60562 169.107 4.963 169.962 5.67775C170.819 6.38118 171.247 7.36255 171.247 8.62188C171.247 9.86988 170.819 10.8512 169.962 11.566C169.107 12.2694 167.925 12.6211 166.419 12.6211H162.995V16.5183H162.121V4.60562H166.419ZM166.419 11.8383C167.697 11.8383 168.673 11.5603 169.347 11.0044C170.019 10.4485 170.357 9.65431 170.357 8.62188C170.357 7.58946 170.019 6.79528 169.347 6.23935C168.673 5.67208 167.697 5.38846 166.419 5.38846H162.995V11.8383H166.419ZM182.514 16.5183L179.656 12.536C179.232 12.5928 178.845 12.6211 178.491 12.6211H175.066V16.5183H174.193V4.60562H178.491C179.998 4.60562 181.179 4.963 182.035 5.67775C182.891 6.38118 183.319 7.36255 183.319 8.62188C183.319 9.56355 183.074 10.3577 182.583 11.0044C182.104 11.6398 181.414 12.0879 180.511 12.3488L183.508 16.5183H182.514ZM178.491 11.8553C179.77 11.8553 180.745 11.5774 181.418 11.0214C182.092 10.4542 182.428 9.65431 182.428 8.62188C182.428 7.58946 182.092 6.79528 181.418 6.23935C180.745 5.67208 179.77 5.38846 178.491 5.38846H175.066V11.8553H178.491ZM191.601 16.6033C190.425 16.6033 189.364 16.3423 188.417 15.8205C187.469 15.2873 186.722 14.5612 186.174 13.6422C185.638 12.7232 185.369 11.6965 185.369 10.562C185.369 9.4274 185.638 8.40065 186.174 7.48168C186.722 6.5627 187.469 5.84226 188.417 5.32039C189.364 4.78714 190.425 4.52052 191.601 4.52052C192.776 4.52052 193.839 4.78147 194.786 5.30336C195.734 5.82525 196.475 6.54567 197.011 7.46465C197.559 8.38363 197.834 9.41606 197.834 10.562C197.834 11.7078 197.559 12.7403 197.011 13.6592C196.475 14.5782 195.734 15.2986 194.786 15.8205C193.839 16.3423 192.776 16.6033 191.601 16.6033ZM191.601 15.8035C192.605 15.8035 193.513 15.5766 194.324 15.1228C195.135 14.669 195.773 14.045 196.241 13.2508C196.709 12.4453 196.944 11.549 196.944 10.562C196.944 9.5749 196.709 8.68429 196.241 7.89011C195.773 7.08459 195.135 6.45492 194.324 6.0011C193.513 5.54728 192.605 5.32039 191.601 5.32039C190.596 5.32039 189.684 5.54728 188.861 6.0011C188.052 6.45492 187.412 7.08459 186.944 7.89011C186.476 8.68429 186.243 9.5749 186.243 10.562C186.243 11.549 186.476 12.4453 186.944 13.2508C187.412 14.045 188.052 14.669 188.861 15.1228C189.684 15.5766 190.596 15.8035 191.601 15.8035Z" fill="#32393E"/>
<path d="M200.768 4.59087H199.93V6.90226H199.587V4.59087H198.75V4.30952H200.768V4.59087ZM201.598 4.30952L202.452 6.42501L203.306 4.30952H203.75V6.90226H203.406V5.89259L203.439 4.80279L202.582 6.90226H202.319L201.465 4.80813L201.498 5.89259V6.90226H201.154V4.30952H201.598Z" fill="#32393E"/>
</svg>
